# xmcd CD database file
#
# Track frame offsets:
#	187
#	21770
#	40425
#	64695
#	89620
#	110985
#	128737
#	146355
#	163392
#	183032
#	208482
#	222542
#	248440
#	280050
#
# Disc length: 3985 seconds
#
# Revision: 5
# Processed by: cddbd v1.5PL3 Copyright (c) Steve Scherf et al.
# Submitted via: CDex 1.50beta9
#
DISCID=d80f8f0e
DTITLE=Expose - What You Don't Know
DYEAR=1989
DGENRE=Pop
TTITLE0=What You Don't Know
TTITLE1=Stop, Listen and Think
TTITLE2=Tell Me Why
TTITLE3=When I Looked At Him
TTITLE4=Let Me Down Easy
TTITLE5=Still Hung Up On You
TTITLE6=Your Baby Never Looked Good In Blue
TTITLE7=Now That I Found You
TTITLE8=Love Don't Hurt (Untill You Fall)
TTITLE9=Didn't It Hurt To Hurt Me
TTITLE10=Walk Along With Me
TTITLE11=What You Don't Know (In Effect Mix)
TTITLE12=When I Looked At Him (Suave Mix)
TTITLE13=What You Don't Know (Paradise Version)
EXTD=YEAR: 1989
EXTT0=
EXTT1=
EXTT2=
EXTT3=
EXTT4=
EXTT5=
EXTT6=
EXTT7=
EXTT8=
EXTT9=
EXTT10=
EXTT11=
EXTT12=
EXTT13=
PLAYORDER=
